<mxfile host="app.diagrams.net" agent="Mozilla/5.0 (Windows NT 10.0; Win64; x64) AppleWebKit/537.36 (KHTML, like Gecko) Chrome/131.0.0.0 Safari/537.36" version="24.8.6">
  <diagram name="Page-1" id="r2Sjsp-4lRfnJy4zL8nn">
    <mxGraphModel dx="934" dy="494" grid="1" gridSize="10" guides="1" tooltips="1" connect="1" arrows="1" fold="1" page="1" pageScale="1" pageWidth="850" pageHeight="1100" math="0" shadow="0">
      <root>
        <mxCell id="0" />
        <mxCell id="1" parent="0" />
        <mxCell id="iuqTh0SIkD5SGt9_RKgI-2" value="" style="rounded=1;whiteSpace=wrap;html=1;absoluteArcSize=1;arcSize=14;strokeWidth=2;" parent="1" vertex="1">
          <mxGeometry x="220" y="150" width="390" height="240" as="geometry" />
        </mxCell>
        <mxCell id="H_J1pWOheFjuxM3ZOzAg-2" value="" style="rounded=0;whiteSpace=wrap;html=1;" vertex="1" parent="1">
          <mxGeometry x="440" y="180" width="130" height="150" as="geometry" />
        </mxCell>
        <mxCell id="H_J1pWOheFjuxM3ZOzAg-9" value="User" style="rounded=0;whiteSpace=wrap;html=1;" vertex="1" parent="1">
          <mxGeometry x="460" y="195" width="50" height="30" as="geometry" />
        </mxCell>
        <mxCell id="H_J1pWOheFjuxM3ZOzAg-11" value="Facility" style="text;html=1;align=center;verticalAlign=middle;whiteSpace=wrap;rounded=0;" vertex="1" parent="1">
          <mxGeometry x="475" y="310" width="60" height="30" as="geometry" />
        </mxCell>
        <mxCell id="H_J1pWOheFjuxM3ZOzAg-12" value="Account" style="text;html=1;align=center;verticalAlign=middle;whiteSpace=wrap;rounded=0;" vertex="1" parent="1">
          <mxGeometry x="230" y="150" width="60" height="30" as="geometry" />
        </mxCell>
        <mxCell id="H_J1pWOheFjuxM3ZOzAg-13" value="Account" style="text;html=1;align=center;verticalAlign=middle;whiteSpace=wrap;rounded=0;" vertex="1" parent="1">
          <mxGeometry x="150" y="535" width="60" height="30" as="geometry" />
        </mxCell>
        <mxCell id="H_J1pWOheFjuxM3ZOzAg-56" style="edgeStyle=orthogonalEdgeStyle;rounded=0;orthogonalLoop=1;jettySize=auto;html=1;" edge="1" parent="1" source="H_J1pWOheFjuxM3ZOzAg-14" target="H_J1pWOheFjuxM3ZOzAg-15">
          <mxGeometry relative="1" as="geometry" />
        </mxCell>
        <mxCell id="H_J1pWOheFjuxM3ZOzAg-57" style="edgeStyle=orthogonalEdgeStyle;rounded=0;orthogonalLoop=1;jettySize=auto;html=1;exitX=1;exitY=0.5;exitDx=0;exitDy=0;entryX=0;entryY=0.5;entryDx=0;entryDy=0;" edge="1" parent="1" source="H_J1pWOheFjuxM3ZOzAg-14" target="H_J1pWOheFjuxM3ZOzAg-22">
          <mxGeometry relative="1" as="geometry" />
        </mxCell>
        <mxCell id="H_J1pWOheFjuxM3ZOzAg-14" value="Facility" style="text;html=1;align=center;verticalAlign=middle;whiteSpace=wrap;rounded=0;" vertex="1" parent="1">
          <mxGeometry x="305" y="460" width="60" height="30" as="geometry" />
        </mxCell>
        <mxCell id="H_J1pWOheFjuxM3ZOzAg-15" value="User" style="text;html=1;align=center;verticalAlign=middle;whiteSpace=wrap;rounded=0;" vertex="1" parent="1">
          <mxGeometry x="445" y="460" width="60" height="30" as="geometry" />
        </mxCell>
        <mxCell id="H_J1pWOheFjuxM3ZOzAg-60" style="edgeStyle=orthogonalEdgeStyle;rounded=0;orthogonalLoop=1;jettySize=auto;html=1;entryX=0;entryY=0.5;entryDx=0;entryDy=0;" edge="1" parent="1" source="H_J1pWOheFjuxM3ZOzAg-17" target="H_J1pWOheFjuxM3ZOzAg-20">
          <mxGeometry relative="1" as="geometry" />
        </mxCell>
        <mxCell id="H_J1pWOheFjuxM3ZOzAg-61" style="edgeStyle=orthogonalEdgeStyle;rounded=0;orthogonalLoop=1;jettySize=auto;html=1;exitX=1;exitY=0.5;exitDx=0;exitDy=0;entryX=0;entryY=0.5;entryDx=0;entryDy=0;" edge="1" parent="1" source="H_J1pWOheFjuxM3ZOzAg-17" target="H_J1pWOheFjuxM3ZOzAg-23">
          <mxGeometry relative="1" as="geometry" />
        </mxCell>
        <mxCell id="H_J1pWOheFjuxM3ZOzAg-17" value="Facility" style="text;html=1;align=center;verticalAlign=middle;whiteSpace=wrap;rounded=0;" vertex="1" parent="1">
          <mxGeometry x="305" y="620" width="60" height="30" as="geometry" />
        </mxCell>
        <mxCell id="H_J1pWOheFjuxM3ZOzAg-58" style="edgeStyle=orthogonalEdgeStyle;rounded=0;orthogonalLoop=1;jettySize=auto;html=1;exitX=1;exitY=0.5;exitDx=0;exitDy=0;" edge="1" parent="1" source="H_J1pWOheFjuxM3ZOzAg-18" target="H_J1pWOheFjuxM3ZOzAg-19">
          <mxGeometry relative="1" as="geometry" />
        </mxCell>
        <mxCell id="H_J1pWOheFjuxM3ZOzAg-59" style="edgeStyle=orthogonalEdgeStyle;rounded=0;orthogonalLoop=1;jettySize=auto;html=1;exitX=1;exitY=0.5;exitDx=0;exitDy=0;entryX=0;entryY=0.5;entryDx=0;entryDy=0;" edge="1" parent="1" source="H_J1pWOheFjuxM3ZOzAg-18" target="H_J1pWOheFjuxM3ZOzAg-21">
          <mxGeometry relative="1" as="geometry" />
        </mxCell>
        <mxCell id="H_J1pWOheFjuxM3ZOzAg-18" value="Facility" style="text;html=1;align=center;verticalAlign=middle;whiteSpace=wrap;rounded=0;" vertex="1" parent="1">
          <mxGeometry x="305" y="540" width="60" height="30" as="geometry" />
        </mxCell>
        <mxCell id="H_J1pWOheFjuxM3ZOzAg-19" value="User" style="text;html=1;align=center;verticalAlign=middle;whiteSpace=wrap;rounded=0;" vertex="1" parent="1">
          <mxGeometry x="445" y="540" width="60" height="30" as="geometry" />
        </mxCell>
        <mxCell id="H_J1pWOheFjuxM3ZOzAg-20" value="User" style="text;html=1;align=center;verticalAlign=middle;whiteSpace=wrap;rounded=0;" vertex="1" parent="1">
          <mxGeometry x="445" y="620" width="60" height="30" as="geometry" />
        </mxCell>
        <mxCell id="H_J1pWOheFjuxM3ZOzAg-21" value="User" style="text;html=1;align=center;verticalAlign=middle;whiteSpace=wrap;rounded=0;" vertex="1" parent="1">
          <mxGeometry x="445" y="580" width="60" height="30" as="geometry" />
        </mxCell>
        <mxCell id="H_J1pWOheFjuxM3ZOzAg-22" value="User" style="text;html=1;align=center;verticalAlign=middle;whiteSpace=wrap;rounded=0;" vertex="1" parent="1">
          <mxGeometry x="445" y="500" width="60" height="30" as="geometry" />
        </mxCell>
        <mxCell id="H_J1pWOheFjuxM3ZOzAg-23" value="User" style="text;html=1;align=center;verticalAlign=middle;whiteSpace=wrap;rounded=0;" vertex="1" parent="1">
          <mxGeometry x="445" y="660" width="60" height="30" as="geometry" />
        </mxCell>
        <mxCell id="H_J1pWOheFjuxM3ZOzAg-29" value="User" style="rounded=0;whiteSpace=wrap;html=1;" vertex="1" parent="1">
          <mxGeometry x="510" y="195" width="50" height="30" as="geometry" />
        </mxCell>
        <mxCell id="H_J1pWOheFjuxM3ZOzAg-31" value="User" style="rounded=0;whiteSpace=wrap;html=1;" vertex="1" parent="1">
          <mxGeometry x="460" y="225" width="50" height="30" as="geometry" />
        </mxCell>
        <mxCell id="H_J1pWOheFjuxM3ZOzAg-32" value="User" style="rounded=0;whiteSpace=wrap;html=1;" vertex="1" parent="1">
          <mxGeometry x="510" y="225" width="50" height="30" as="geometry" />
        </mxCell>
        <mxCell id="H_J1pWOheFjuxM3ZOzAg-33" value="User" style="rounded=0;whiteSpace=wrap;html=1;" vertex="1" parent="1">
          <mxGeometry x="510" y="255" width="50" height="30" as="geometry" />
        </mxCell>
        <mxCell id="H_J1pWOheFjuxM3ZOzAg-34" value="User" style="rounded=0;whiteSpace=wrap;html=1;" vertex="1" parent="1">
          <mxGeometry x="460" y="255" width="50" height="30" as="geometry" />
        </mxCell>
        <mxCell id="H_J1pWOheFjuxM3ZOzAg-36" value="" style="rounded=0;whiteSpace=wrap;html=1;" vertex="1" parent="1">
          <mxGeometry x="270" y="180" width="130" height="150" as="geometry" />
        </mxCell>
        <mxCell id="H_J1pWOheFjuxM3ZOzAg-37" value="User" style="rounded=0;whiteSpace=wrap;html=1;" vertex="1" parent="1">
          <mxGeometry x="290" y="195" width="50" height="30" as="geometry" />
        </mxCell>
        <mxCell id="H_J1pWOheFjuxM3ZOzAg-38" value="Facility" style="text;html=1;align=center;verticalAlign=middle;whiteSpace=wrap;rounded=0;" vertex="1" parent="1">
          <mxGeometry x="305" y="310" width="60" height="30" as="geometry" />
        </mxCell>
        <mxCell id="H_J1pWOheFjuxM3ZOzAg-39" value="User" style="rounded=0;whiteSpace=wrap;html=1;" vertex="1" parent="1">
          <mxGeometry x="340" y="195" width="50" height="30" as="geometry" />
        </mxCell>
        <mxCell id="H_J1pWOheFjuxM3ZOzAg-40" value="User" style="rounded=0;whiteSpace=wrap;html=1;" vertex="1" parent="1">
          <mxGeometry x="290" y="225" width="50" height="30" as="geometry" />
        </mxCell>
        <mxCell id="H_J1pWOheFjuxM3ZOzAg-41" value="User" style="rounded=0;whiteSpace=wrap;html=1;" vertex="1" parent="1">
          <mxGeometry x="340" y="225" width="50" height="30" as="geometry" />
        </mxCell>
        <mxCell id="H_J1pWOheFjuxM3ZOzAg-42" value="User" style="rounded=0;whiteSpace=wrap;html=1;" vertex="1" parent="1">
          <mxGeometry x="340" y="255" width="50" height="30" as="geometry" />
        </mxCell>
        <mxCell id="H_J1pWOheFjuxM3ZOzAg-43" value="User" style="rounded=0;whiteSpace=wrap;html=1;" vertex="1" parent="1">
          <mxGeometry x="290" y="255" width="50" height="30" as="geometry" />
        </mxCell>
        <mxCell id="H_J1pWOheFjuxM3ZOzAg-44" value="&lt;b&gt;Account&lt;/b&gt;" style="swimlane;fontStyle=0;childLayout=stackLayout;horizontal=1;startSize=30;horizontalStack=0;resizeParent=1;resizeParentMax=0;resizeLast=0;collapsible=1;marginBottom=0;whiteSpace=wrap;html=1;" vertex="1" parent="1">
          <mxGeometry x="165" y="770" width="140" height="90" as="geometry" />
        </mxCell>
        <mxCell id="H_J1pWOheFjuxM3ZOzAg-45" value="accountId (&lt;b&gt;PK&lt;/b&gt;)" style="text;strokeColor=none;fillColor=none;align=left;verticalAlign=middle;spacingLeft=4;spacingRight=4;overflow=hidden;points=[[0,0.5],[1,0.5]];portConstraint=eastwest;rotatable=0;whiteSpace=wrap;html=1;" vertex="1" parent="H_J1pWOheFjuxM3ZOzAg-44">
          <mxGeometry y="30" width="140" height="60" as="geometry" />
        </mxCell>
        <mxCell id="H_J1pWOheFjuxM3ZOzAg-50" value="" style="curved=1;endArrow=classic;html=1;rounded=0;" edge="1" parent="1" target="H_J1pWOheFjuxM3ZOzAg-14">
          <mxGeometry width="50" height="50" relative="1" as="geometry">
            <mxPoint x="210" y="550" as="sourcePoint" />
            <mxPoint x="260" y="500" as="targetPoint" />
            <Array as="points">
              <mxPoint x="260" y="550" />
              <mxPoint x="210" y="500" />
            </Array>
          </mxGeometry>
        </mxCell>
        <mxCell id="H_J1pWOheFjuxM3ZOzAg-54" value="" style="endArrow=classic;html=1;rounded=0;exitX=1;exitY=0.5;exitDx=0;exitDy=0;" edge="1" parent="1" source="H_J1pWOheFjuxM3ZOzAg-13">
          <mxGeometry width="50" height="50" relative="1" as="geometry">
            <mxPoint x="260" y="600" as="sourcePoint" />
            <mxPoint x="310" y="550" as="targetPoint" />
          </mxGeometry>
        </mxCell>
        <mxCell id="H_J1pWOheFjuxM3ZOzAg-55" value="" style="endArrow=classic;html=1;rounded=0;exitX=1;exitY=0.5;exitDx=0;exitDy=0;entryX=0;entryY=0.5;entryDx=0;entryDy=0;" edge="1" parent="1" source="H_J1pWOheFjuxM3ZOzAg-13" target="H_J1pWOheFjuxM3ZOzAg-17">
          <mxGeometry width="50" height="50" relative="1" as="geometry">
            <mxPoint x="310" y="600" as="sourcePoint" />
            <mxPoint x="360" y="550" as="targetPoint" />
          </mxGeometry>
        </mxCell>
        <mxCell id="H_J1pWOheFjuxM3ZOzAg-62" value="&lt;b&gt;&lt;font style=&quot;font-size: 14px;&quot;&gt;DB design&lt;/font&gt;&lt;/b&gt;" style="text;html=1;align=center;verticalAlign=middle;resizable=0;points=[];autosize=1;strokeColor=none;fillColor=default;" vertex="1" parent="1">
          <mxGeometry x="110" y="710" width="90" height="30" as="geometry" />
        </mxCell>
        <mxCell id="H_J1pWOheFjuxM3ZOzAg-63" value="&lt;b&gt;Facility&lt;/b&gt;" style="swimlane;fontStyle=0;childLayout=stackLayout;horizontal=1;startSize=30;horizontalStack=0;resizeParent=1;resizeParentMax=0;resizeLast=0;collapsible=1;marginBottom=0;whiteSpace=wrap;html=1;fillColor=none;" vertex="1" parent="1">
          <mxGeometry x="335" y="770" width="130" height="90" as="geometry" />
        </mxCell>
        <mxCell id="H_J1pWOheFjuxM3ZOzAg-64" value="&lt;div&gt;&lt;span style=&quot;background-color: initial;&quot;&gt;&lt;br&gt;&lt;/span&gt;&lt;/div&gt;&lt;div&gt;&lt;span style=&quot;background-color: initial;&quot;&gt;accountId (&lt;/span&gt;&lt;b style=&quot;background-color: initial;&quot;&gt;PK&lt;/b&gt;&lt;span style=&quot;background-color: initial;&quot;&gt;)&lt;/span&gt;&lt;/div&gt;&lt;div&gt;facilityId&amp;nbsp;&lt;span style=&quot;background-color: initial;&quot;&gt;(&lt;b&gt;S&lt;/b&gt;&lt;/span&gt;&lt;b style=&quot;background-color: initial;&quot;&gt;K&lt;/b&gt;&lt;span style=&quot;background-color: initial;&quot;&gt;)&lt;/span&gt;&lt;/div&gt;&lt;br&gt;&lt;div&gt;&lt;br&gt;&lt;/div&gt;" style="text;strokeColor=none;fillColor=none;align=left;verticalAlign=middle;spacingLeft=4;spacingRight=4;overflow=hidden;points=[[0,0.5],[1,0.5]];portConstraint=eastwest;rotatable=0;whiteSpace=wrap;html=1;" vertex="1" parent="H_J1pWOheFjuxM3ZOzAg-63">
          <mxGeometry y="30" width="130" height="60" as="geometry" />
        </mxCell>
        <mxCell id="H_J1pWOheFjuxM3ZOzAg-65" value="&lt;b&gt;User&lt;/b&gt;" style="swimlane;fontStyle=0;childLayout=stackLayout;horizontal=1;startSize=30;horizontalStack=0;resizeParent=1;resizeParentMax=0;resizeLast=0;collapsible=1;marginBottom=0;whiteSpace=wrap;html=1;fillColor=none;" vertex="1" parent="1">
          <mxGeometry x="510" y="770" width="150" height="90" as="geometry" />
        </mxCell>
        <mxCell id="H_J1pWOheFjuxM3ZOzAg-66" value="&lt;div&gt;&lt;span style=&quot;background-color: initial;&quot;&gt;userId&lt;/span&gt;&lt;/div&gt;facilityId (&lt;b&gt;SK&lt;/b&gt;)&lt;div&gt;accountId&amp;nbsp;&lt;span style=&quot;background-color: initial;&quot;&gt;accountId (&lt;/span&gt;&lt;b style=&quot;background-color: initial;&quot;&gt;PK&lt;/b&gt;&lt;span style=&quot;background-color: initial;&quot;&gt;)&lt;/span&gt;&lt;/div&gt;" style="text;strokeColor=none;fillColor=none;align=left;verticalAlign=middle;spacingLeft=4;spacingRight=4;overflow=hidden;points=[[0,0.5],[1,0.5]];portConstraint=eastwest;rotatable=0;whiteSpace=wrap;html=1;" vertex="1" parent="H_J1pWOheFjuxM3ZOzAg-65">
          <mxGeometry y="30" width="150" height="60" as="geometry" />
        </mxCell>
        <mxCell id="H_J1pWOheFjuxM3ZOzAg-75" value="Account" style="swimlane;fontStyle=0;childLayout=stackLayout;horizontal=1;startSize=26;fillColor=#FF9933;horizontalStack=0;resizeParent=1;resizeParentMax=0;resizeLast=0;collapsible=1;marginBottom=0;html=1;movable=1;resizable=1;rotatable=1;deletable=1;editable=1;locked=0;connectable=1;strokeColor=#36393d;" vertex="1" parent="1">
          <mxGeometry x="830" y="200" width="140" height="78" as="geometry">
            <mxRectangle x="720" y="155" width="60" height="30" as="alternateBounds" />
          </mxGeometry>
        </mxCell>
        <mxCell id="H_J1pWOheFjuxM3ZOzAg-76" value="accountId" style="text;strokeColor=none;fillColor=none;align=left;verticalAlign=top;spacingLeft=4;spacingRight=4;overflow=hidden;rotatable=0;points=[[0,0.5],[1,0.5]];portConstraint=eastwest;whiteSpace=wrap;html=1;" vertex="1" parent="H_J1pWOheFjuxM3ZOzAg-75">
          <mxGeometry y="26" width="140" height="26" as="geometry" />
        </mxCell>
        <mxCell id="H_J1pWOheFjuxM3ZOzAg-77" value="name" style="text;strokeColor=none;fillColor=none;align=left;verticalAlign=top;spacingLeft=4;spacingRight=4;overflow=hidden;rotatable=0;points=[[0,0.5],[1,0.5]];portConstraint=eastwest;whiteSpace=wrap;html=1;" vertex="1" parent="H_J1pWOheFjuxM3ZOzAg-75">
          <mxGeometry y="52" width="140" height="26" as="geometry" />
        </mxCell>
        <mxCell id="H_J1pWOheFjuxM3ZOzAg-79" value="Facility" style="swimlane;fontStyle=0;childLayout=stackLayout;horizontal=1;startSize=26;fillColor=#FF9933;horizontalStack=0;resizeParent=1;resizeParentMax=0;resizeLast=0;collapsible=1;marginBottom=0;html=1;movable=1;resizable=1;rotatable=1;deletable=1;editable=1;locked=0;connectable=1;strokeColor=#36393d;" vertex="1" parent="1">
          <mxGeometry x="1170" y="200" width="140" height="110" as="geometry">
            <mxRectangle x="720" y="155" width="60" height="30" as="alternateBounds" />
          </mxGeometry>
        </mxCell>
        <mxCell id="H_J1pWOheFjuxM3ZOzAg-80" value="facilityId&lt;div&gt;&lt;br&gt;&lt;/div&gt;&lt;div&gt;&lt;br&gt;&lt;/div&gt;&lt;div&gt;&lt;br&gt;&lt;/div&gt;&lt;div&gt;&lt;br&gt;&lt;/div&gt;" style="text;strokeColor=none;fillColor=none;align=left;verticalAlign=top;spacingLeft=4;spacingRight=4;overflow=hidden;rotatable=0;points=[[0,0.5],[1,0.5]];portConstraint=eastwest;whiteSpace=wrap;html=1;" vertex="1" parent="H_J1pWOheFjuxM3ZOzAg-79">
          <mxGeometry y="26" width="140" height="26" as="geometry" />
        </mxCell>
        <mxCell id="H_J1pWOheFjuxM3ZOzAg-81" value="&lt;div&gt;&lt;span style=&quot;background-color: initial;&quot;&gt;name&lt;/span&gt;&lt;/div&gt;&lt;div&gt;&lt;span style=&quot;background-color: initial;&quot;&gt;&lt;br&gt;&lt;/span&gt;&lt;/div&gt;&lt;div&gt;&lt;span style=&quot;background-color: initial;&quot;&gt;facType&lt;/span&gt;&lt;/div&gt;" style="text;strokeColor=none;fillColor=none;align=left;verticalAlign=top;spacingLeft=4;spacingRight=4;overflow=hidden;rotatable=0;points=[[0,0.5],[1,0.5]];portConstraint=eastwest;whiteSpace=wrap;html=1;" vertex="1" parent="H_J1pWOheFjuxM3ZOzAg-79">
          <mxGeometry y="52" width="140" height="58" as="geometry" />
        </mxCell>
        <mxCell id="H_J1pWOheFjuxM3ZOzAg-82" value="User" style="swimlane;fontStyle=0;childLayout=stackLayout;horizontal=1;startSize=26;fillColor=#FF9933;horizontalStack=0;resizeParent=1;resizeParentMax=0;resizeLast=0;collapsible=1;marginBottom=0;html=1;movable=1;resizable=1;rotatable=1;deletable=1;editable=1;locked=0;connectable=1;strokeColor=#36393d;" vertex="1" parent="1">
          <mxGeometry x="960" y="400" width="130" height="270" as="geometry">
            <mxRectangle x="720" y="155" width="60" height="30" as="alternateBounds" />
          </mxGeometry>
        </mxCell>
        <mxCell id="H_J1pWOheFjuxM3ZOzAg-83" value="userId" style="text;strokeColor=none;fillColor=none;align=left;verticalAlign=top;spacingLeft=4;spacingRight=4;overflow=hidden;rotatable=0;points=[[0,0.5],[1,0.5]];portConstraint=eastwest;whiteSpace=wrap;html=1;" vertex="1" parent="H_J1pWOheFjuxM3ZOzAg-82">
          <mxGeometry y="26" width="130" height="26" as="geometry" />
        </mxCell>
        <mxCell id="H_J1pWOheFjuxM3ZOzAg-84" value="&lt;div&gt;firstName&lt;/div&gt;&lt;div&gt;&lt;br&gt;&lt;/div&gt;&lt;div&gt;lastName&lt;/div&gt;&lt;div&gt;&lt;br&gt;&lt;/div&gt;&lt;div&gt;email&lt;/div&gt;&lt;div&gt;&lt;br&gt;&lt;/div&gt;&lt;div&gt;username&lt;/div&gt;&lt;div&gt;&lt;br&gt;&lt;/div&gt;&lt;div&gt;mobile&lt;/div&gt;&lt;div&gt;&lt;br&gt;&lt;/div&gt;&lt;div&gt;roles&lt;/div&gt;&lt;div&gt;&lt;br&gt;&lt;/div&gt;&lt;div&gt;designation&lt;/div&gt;" style="text;strokeColor=none;fillColor=none;align=left;verticalAlign=top;spacingLeft=4;spacingRight=4;overflow=hidden;rotatable=0;points=[[0,0.5],[1,0.5]];portConstraint=eastwest;whiteSpace=wrap;html=1;" vertex="1" parent="H_J1pWOheFjuxM3ZOzAg-82">
          <mxGeometry y="52" width="130" height="218" as="geometry" />
        </mxCell>
        <mxCell id="H_J1pWOheFjuxM3ZOzAg-90" value="" style="edgeStyle=entityRelationEdgeStyle;fontSize=12;html=1;endArrow=ERzeroToMany;startArrow=ERone;rounded=0;exitX=1.006;exitY=0.183;exitDx=0;exitDy=0;exitPerimeter=0;startFill=0;" edge="1" parent="1" source="H_J1pWOheFjuxM3ZOzAg-75">
          <mxGeometry width="100" height="100" relative="1" as="geometry">
            <mxPoint x="980" y="250" as="sourcePoint" />
            <mxPoint x="1170" y="213" as="targetPoint" />
          </mxGeometry>
        </mxCell>
        <mxCell id="H_J1pWOheFjuxM3ZOzAg-92" value="" style="edgeStyle=orthogonalEdgeStyle;fontSize=12;html=1;endArrow=ERzeroToMany;startArrow=ERone;rounded=0;entryX=1.017;entryY=0.241;entryDx=0;entryDy=0;entryPerimeter=0;arcSize=0;exitX=0.501;exitY=0.999;exitDx=0;exitDy=0;exitPerimeter=0;startFill=0;" edge="1" parent="1" source="H_J1pWOheFjuxM3ZOzAg-81" target="H_J1pWOheFjuxM3ZOzAg-84">
          <mxGeometry width="100" height="100" relative="1" as="geometry">
            <mxPoint x="1240" y="320" as="sourcePoint" />
            <mxPoint x="1050" y="532.994" as="targetPoint" />
          </mxGeometry>
        </mxCell>
        <mxCell id="H_J1pWOheFjuxM3ZOzAg-93" value="" style="fontSize=12;html=1;endArrow=ERzeroToMany;startArrow=ERone;rounded=0;arcSize=0;edgeStyle=orthogonalEdgeStyle;entryX=-0.023;entryY=0.235;entryDx=0;entryDy=0;entryPerimeter=0;startFill=0;" edge="1" parent="1" target="H_J1pWOheFjuxM3ZOzAg-84">
          <mxGeometry width="100" height="100" relative="1" as="geometry">
            <mxPoint x="860" y="280" as="sourcePoint" />
            <mxPoint x="950" y="590" as="targetPoint" />
          </mxGeometry>
        </mxCell>
      </root>
    </mxGraphModel>
  </diagram>
</mxfile>
